<?xml version="1.0" encoding="UTF-8" standalone="no"?>
<!DOCTYPE svg PUBLIC "-//W3C//DTD SVG 1.1//EN"
 "http://www.w3.org/Graphics/SVG/1.1/DTD/svg11.dtd">
<!-- Generated by graphviz version 2.43.0 (0)
 -->
<!-- Title: G Pages: 1 -->
<svg width="481pt" height="375pt"
 viewBox="0.00 0.00 481.39 375.43" xmlns="http://www.w3.org/2000/svg" xmlns:xlink="http://www.w3.org/1999/xlink">
<g id="graph0" class="graph" transform="scale(1 1) rotate(0) translate(4 371.43)">
<title>G</title><style>.edge>path:hover{stroke-width:8}</style>
<polygon fill="white" stroke="transparent" points="-4,4 -4,-371.43 477.39,-371.43 477.39,4 -4,4"/>
<!-- googlenews_application_py -->
<g id="node1" class="node">
<title>googlenews_application_py</title><style>.edge>path:hover{stroke-width:8}</style>
<ellipse fill="#a65959" stroke="black" cx="243.39" cy="-21.21" rx="96.75" ry="21.43"/>
<text text-anchor="middle" x="243.39" y="-24.21" font-family="Helvetica,sans-Serif" font-size="10.00" fill="#ffffff">googlenews_application.</text>
<text text-anchor="middle" x="243.39" y="-13.21" font-family="Helvetica,sans-Serif" font-size="10.00" fill="#ffffff">py</text>
</g>
<!-- tqdm -->
<g id="node2" class="node">
<title>tqdm</title><style>.edge>path:hover{stroke-width:8}</style>
<polygon fill="blue" stroke="black" points="270.39,-151.43 216.39,-151.43 216.39,-115.43 270.39,-115.43 270.39,-151.43"/>
<text text-anchor="middle" x="243.39" y="-130.93" font-family="Helvetica,sans-Serif" font-size="10.00" fill="white">tqdm</text>
</g>
<!-- tqdm&#45;&gt;googlenews_application_py -->
<g id="edge1" class="edge">
<title>tqdm&#45;&gt;googlenews_application_py</title><style>.edge>path:hover{stroke-width:8}</style>
<path fill="none" stroke="black" d="M243.39,-115.21C243.39,-98.58 243.39,-73.03 243.39,-52.92"/>
<polygon fill="blue" stroke="black" points="246.89,-52.69 243.39,-42.69 239.89,-52.69 246.89,-52.69"/>
</g>
<!-- tqdm__monitor -->
<g id="node3" class="node">
<title>tqdm__monitor</title><style>.edge>path:hover{stroke-width:8}</style>
<ellipse fill="#47c2c2" stroke="black" cx="52.39" cy="-349.43" rx="52.28" ry="18"/>
<text text-anchor="middle" x="52.39" y="-346.93" font-family="Helvetica,sans-Serif" font-size="10.00" fill="#000000">tqdm._monitor</text>
</g>
<!-- tqdm__monitor&#45;&gt;tqdm -->
<g id="edge2" class="edge">
<title>tqdm__monitor&#45;&gt;tqdm</title><style>.edge>path:hover{stroke-width:8}</style>
<path fill="none" stroke="black" d="M42.14,-331.54C26.97,-304.2 2.25,-249.01 21.39,-206.43"/>
<path fill="none" stroke="black" d="M21.39,-204.43C36.78,-170.18 146.82,-148.76 205.98,-139.6"/>
<polygon fill="#47c2c2" stroke="black" points="206.68,-143.03 216.05,-138.08 205.64,-136.11 206.68,-143.03"/>
</g>
<!-- tqdm_std -->
<g id="node8" class="node">
<title>tqdm_std</title><style>.edge>path:hover{stroke-width:8}</style>
<ellipse fill="#26d9d9" stroke="black" cx="84.39" cy="-277.43" rx="35.14" ry="18"/>
<text text-anchor="middle" x="84.39" y="-274.93" font-family="Helvetica,sans-Serif" font-size="10.00" fill="#000000">tqdm.std</text>
</g>
<!-- tqdm__monitor&#45;&gt;tqdm_std -->
<g id="edge3" class="edge">
<title>tqdm__monitor&#45;&gt;tqdm_std</title><style>.edge>path:hover{stroke-width:8}</style>
<path fill="none" stroke="black" d="M60.14,-331.48C63.83,-323.4 68.34,-313.55 72.45,-304.54"/>
<polygon fill="#47c2c2" stroke="black" points="75.74,-305.77 76.72,-295.22 69.38,-302.85 75.74,-305.77"/>
</g>
<!-- tqdm__tqdm_pandas -->
<g id="node4" class="node">
<title>tqdm__tqdm_pandas</title><style>.edge>path:hover{stroke-width:8}</style>
<polygon fill="blue" stroke="black" points="473.39,-223.43 385.39,-223.43 385.39,-187.43 473.39,-187.43 473.39,-223.43"/>
<text text-anchor="middle" x="429.39" y="-208.43" font-family="Helvetica,sans-Serif" font-size="10.00" fill="white">tqdm.</text>
<text text-anchor="middle" x="429.39" y="-197.43" font-family="Helvetica,sans-Serif" font-size="10.00" fill="white">_tqdm_pandas</text>
</g>
<!-- tqdm__tqdm_pandas&#45;&gt;tqdm -->
<g id="edge4" class="edge">
<title>tqdm__tqdm_pandas&#45;&gt;tqdm</title><style>.edge>path:hover{stroke-width:8}</style>
<path fill="none" stroke="black" d="M385.31,-187.84C353.27,-175.78 310.39,-159.64 280.18,-148.27"/>
<polygon fill="blue" stroke="black" points="281.05,-144.86 270.46,-144.61 278.58,-151.41 281.05,-144.86"/>
</g>
<!-- tqdm_cli -->
<g id="node5" class="node">
<title>tqdm_cli</title><style>.edge>path:hover{stroke-width:8}</style>
<ellipse fill="#49acac" stroke="black" cx="296.39" cy="-205.43" rx="32.93" ry="18"/>
<text text-anchor="middle" x="296.39" y="-202.93" font-family="Helvetica,sans-Serif" font-size="10.00" fill="#000000">tqdm.cli</text>
</g>
<!-- tqdm_cli&#45;&gt;tqdm -->
<g id="edge5" class="edge">
<title>tqdm_cli&#45;&gt;tqdm</title><style>.edge>path:hover{stroke-width:8}</style>
<path fill="none" stroke="black" d="M284.36,-188.54C277.94,-180.06 269.88,-169.41 262.61,-159.81"/>
<polygon fill="#49acac" stroke="black" points="265.31,-157.58 256.48,-151.72 259.73,-161.8 265.31,-157.58"/>
</g>
<!-- tqdm_gui -->
<g id="node6" class="node">
<title>tqdm_gui</title><style>.edge>path:hover{stroke-width:8}</style>
<ellipse fill="#4cb3b3" stroke="black" cx="84.39" cy="-205.43" rx="35.14" ry="18"/>
<text text-anchor="middle" x="84.39" y="-202.93" font-family="Helvetica,sans-Serif" font-size="10.00" fill="#000000">tqdm.gui</text>
</g>
<!-- tqdm_gui&#45;&gt;tqdm -->
<g id="edge6" class="edge">
<title>tqdm_gui&#45;&gt;tqdm</title><style>.edge>path:hover{stroke-width:8}</style>
<path fill="none" stroke="black" d="M110.29,-193.02C136.57,-181.45 177.49,-163.44 207.02,-150.44"/>
<polygon fill="#4cb3b3" stroke="black" points="208.43,-153.64 216.17,-146.41 205.61,-147.24 208.43,-153.64"/>
</g>
<!-- tqdm_notebook -->
<g id="node7" class="node">
<title>tqdm_notebook</title><style>.edge>path:hover{stroke-width:8}</style>
<ellipse fill="#4cb3b3" stroke="black" cx="191.39" cy="-205.43" rx="53.64" ry="18"/>
<text text-anchor="middle" x="191.39" y="-202.93" font-family="Helvetica,sans-Serif" font-size="10.00" fill="#000000">tqdm.notebook</text>
</g>
<!-- tqdm_notebook&#45;&gt;tqdm -->
<g id="edge7" class="edge">
<title>tqdm_notebook&#45;&gt;tqdm</title><style>.edge>path:hover{stroke-width:8}</style>
<path fill="none" stroke="black" d="M203.71,-187.84C209.88,-179.54 217.47,-169.32 224.36,-160.04"/>
<polygon fill="#4cb3b3" stroke="black" points="227.28,-161.99 230.43,-151.87 221.66,-157.81 227.28,-161.99"/>
</g>
<!-- tqdm_std&#45;&gt;tqdm -->
<g id="edge8" class="edge">
<title>tqdm_std&#45;&gt;tqdm</title><style>.edge>path:hover{stroke-width:8}</style>
<path fill="none" stroke="black" d="M59.93,-264.34C37.96,-251.67 10.67,-230.29 21.39,-206.43"/>
</g>
<!-- tqdm_std&#45;&gt;tqdm_cli -->
<g id="edge9" class="edge">
<title>tqdm_std&#45;&gt;tqdm_cli</title><style>.edge>path:hover{stroke-width:8}</style>
<path fill="none" stroke="black" d="M114.43,-267.88C148.59,-257.96 205.92,-240.76 254.39,-223.43 256.64,-222.62 258.95,-221.77 261.27,-220.89"/>
<polygon fill="#26d9d9" stroke="black" points="262.71,-224.09 270.75,-217.19 260.17,-217.56 262.71,-224.09"/>
</g>
<!-- tqdm_std&#45;&gt;tqdm_gui -->
<g id="edge10" class="edge">
<title>tqdm_std&#45;&gt;tqdm_gui</title><style>.edge>path:hover{stroke-width:8}</style>
<path fill="none" stroke="black" d="M84.39,-259.12C84.39,-251.41 84.39,-242.14 84.39,-233.54"/>
<polygon fill="#26d9d9" stroke="black" points="87.89,-233.53 84.39,-223.53 80.89,-233.53 87.89,-233.53"/>
</g>
<!-- tqdm_std&#45;&gt;tqdm_notebook -->
<g id="edge11" class="edge">
<title>tqdm_std&#45;&gt;tqdm_notebook</title><style>.edge>path:hover{stroke-width:8}</style>
<path fill="none" stroke="black" d="M105.28,-262.76C120.61,-252.73 141.71,-238.93 159.19,-227.49"/>
<polygon fill="#26d9d9" stroke="black" points="161.5,-230.16 167.95,-221.76 157.67,-224.3 161.5,-230.16"/>
</g>
<!-- tqdm_version -->
<g id="node9" class="node">
<title>tqdm_version</title><style>.edge>path:hover{stroke-width:8}</style>
<ellipse fill="#47c2c2" stroke="black" cx="326.39" cy="-277.43" rx="47.86" ry="18"/>
<text text-anchor="middle" x="326.39" y="-274.93" font-family="Helvetica,sans-Serif" font-size="10.00" fill="#000000">tqdm.version</text>
</g>
<!-- tqdm_version&#45;&gt;tqdm -->
<g id="edge12" class="edge">
<title>tqdm_version&#45;&gt;tqdm</title><style>.edge>path:hover{stroke-width:8}</style>
<path fill="none" stroke="black" d="M334.66,-259.44C342.56,-240.54 351.5,-209.74 338.39,-187.43 325.84,-166.06 301.2,-152.67 280.16,-144.7"/>
<polygon fill="#47c2c2" stroke="black" points="281.09,-141.31 270.49,-141.3 278.77,-147.92 281.09,-141.31"/>
</g>
<!-- tqdm_version&#45;&gt;tqdm_cli -->
<g id="edge13" class="edge">
<title>tqdm_version&#45;&gt;tqdm_cli</title><style>.edge>path:hover{stroke-width:8}</style>
<path fill="none" stroke="black" d="M319.13,-259.48C315.66,-251.4 311.44,-241.55 307.58,-232.54"/>
<polygon fill="#47c2c2" stroke="black" points="310.74,-231.03 303.59,-223.22 304.31,-233.79 310.74,-231.03"/>
</g>
</g>
</svg>
